<svg width="43" height="39" viewBox="0 0 43 39" fill="none" xmlns="http://www.w3.org/2000/svg">
  <g filter="url(#filter0_d_165_406)">
    <rect x="5" y="4" width="33" height="26" rx="5" fill="white" stroke="black" stroke-width="2"/>
    <rect x="11.5" y="9.5" width="4.27273" height="4" rx="1.5" fill="#FFFEFE" stroke="black"/>
    <rect x="19.4091" y="9.5" width="4.27273" height="4" rx="1.5" fill="#FFFEFE" stroke="black"/>
    <rect x="27.3182" y="9.5" width="4.27273" height="4" rx="1.5" fill="#FFFEFE" stroke="black"/>
    <rect x="11.5" y="15.5" width="4.27273" height="4" rx="1.5" fill="#FFFEFE" stroke="black"/>
    <rect x="27.3181" y="15.5" width="4.27273" height="4" rx="1.5" fill="#FFFEFE" stroke="black"/>
    <rect x="19.4091" y="15.5" width="4.27273" height="4" rx="1.5" fill="#FFFEFE" stroke="black"/>
    <rect x="11.5" y="21.5" width="4.27273" height="4" rx="1.5" fill="#FFFEFE" stroke="black"/>
    <rect x="19.4091" y="21.5" width="4.27273" height="4" rx="1.5" fill="#FFFEFE" stroke="black"/>
    <rect x="27.3182" y="21.5" width="4.27273" height="4" rx="1.5" fill="#FFFEFE" stroke="black"/>
    <rect x="11.75" y="0.75" width="1.5" height="5.5" rx="0.75" fill="white"/>
    <rect x="11.75" y="0.75" width="1.5" height="5.5" rx="0.75" fill="white"/>
    <rect x="11.75" y="0.75" width="1.5" height="5.5" rx="0.75" fill="white"/>
    <rect x="11.75" y="0.75" width="1.5" height="5.5" rx="0.75" stroke="black" stroke-width="1.5"/>
    <rect x="29.75" y="0.75" width="1.5" height="5.5" rx="0.75" fill="white"/>
    <rect x="29.75" y="0.75" width="1.5" height="5.5" rx="0.75" fill="white"/>
    <rect x="29.75" y="0.75" width="1.5" height="5.5" rx="0.75" fill="white"/>
    <rect x="29.75" y="0.75" width="1.5" height="5.5" rx="0.75" stroke="black" stroke-width="1.5"/>
  </g>
  <defs>
    <filter id="filter0_d_165_406" x="0" y="0" width="43" height="39" filterUnits="userSpaceOnUse" color-interpolation-filters="sRGB">
      <feFlood flood-opacity="0" result="BackgroundImageFix"/>
      <feColorMatrix in="SourceAlpha" type="matrix" values="0 0 0 0 0 0 0 0 0 0 0 0 0 0 0 0 0 0 127 0" result="hardAlpha"/>
      <feOffset dy="4"/>
      <feGaussianBlur stdDeviation="2"/>
      <feComposite in2="hardAlpha" operator="out"/>
      <feColorMatrix type="matrix" values="0 0 0 0 0 0 0 0 0 0 0 0 0 0 0 0 0 0 0.25 0"/>
      <feBlend mode="normal" in2="BackgroundImageFix" result="effect1_dropShadow_165_406"/>
      <feBlend mode="normal" in="SourceGraphic" in2="effect1_dropShadow_165_406" result="shape"/>
    </filter>
  </defs>
</svg>
